<svg width="30" height="30" fill="none" xmlns="http://www.w3.org/2000/svg"><rect width="30" height="30" rx="15" fill="#E0812A"/><path d="M17.841 9.32l-1.474-.003c-1.656 0-2.726 1.098-2.726 2.797v1.29H12.16a.232.232 0 00-.231.232v1.869a.23.23 0 00.231.231h1.482v4.715c0 .128.104.232.232.232h1.934a.232.232 0 00.231-.232v-4.715h1.733a.232.232 0 00.232-.232v-1.868a.232.232 0 00-.231-.232h-1.734v-1.093c0-.526.125-.792.81-.792h.993a.232.232 0 00.232-.232V9.55a.232.232 0 00-.232-.231z" fill="#fff"/></svg>