<svg width="30" height="30" fill="none" xmlns="http://www.w3.org/2000/svg"><rect width="30" height="30" rx="15" fill="#E0812A"/><path fill-rule="evenodd" clip-rule="evenodd" d="M20.049 16.076c.464.453.954.88 1.37 1.38.185.221.36.45.492.707.19.366.018.769-.31.79h-2.04c-.526.044-.945-.168-1.298-.528-.282-.288-.544-.594-.815-.891a1.932 1.932 0 00-.367-.326c-.279-.181-.52-.126-.68.165-.162.295-.198.622-.214.951-.022.48-.167.607-.65.629-1.03.048-2.01-.108-2.918-.628-.802-.458-1.423-1.105-1.964-1.838-1.053-1.427-1.86-2.995-2.584-4.607-.163-.363-.044-.558.357-.565.665-.013 1.33-.012 1.996 0 .27.003.45.158.554.414.36.885.8 1.727 1.354 2.508.147.207.297.415.51.562.237.161.417.108.528-.156a1.74 1.74 0 00.118-.526c.053-.615.06-1.23-.033-1.843-.057-.383-.272-.63-.654-.703-.195-.037-.166-.11-.072-.221.164-.192.318-.311.626-.311h2.305c.363.071.443.234.493.6l.002 2.56c-.004.141.07.56.325.654.204.067.338-.096.46-.226.552-.585.946-1.277 1.298-1.994.156-.315.29-.643.42-.97.097-.242.248-.362.522-.357l2.218.002c.066 0 .132.001.196.012.374.064.476.225.36.59-.181.572-.535 1.05-.881 1.53-.37.511-.766 1.005-1.133 1.52-.337.47-.31.708.109 1.116z" fill="#fff"/></svg>