<svg width="30" height="30" fill="none" xmlns="http://www.w3.org/2000/svg"><rect width="30" height="30" rx="15" fill="#E0812A"/><path d="M21.688 11.645a1.748 1.748 0 00-1.23-1.23c-1.091-.299-5.458-.299-5.458-.299s-4.366 0-5.458.288a1.783 1.783 0 00-1.23 1.24C8.026 12.737 8.026 15 8.026 15s0 2.275.288 3.355c.16.598.632 1.069 1.23 1.23 1.102.299 5.458.299 5.458.299s4.366 0 5.458-.288a1.748 1.748 0 001.23-1.23c.287-1.09.287-3.355.287-3.355s.011-2.275-.288-3.366zM13.61 17.09v-4.18L17.241 15l-3.63 2.092z" fill="#fff"/></svg>